<mxfile host="app.diagrams.net" agent="Mozilla/5.0 (X11; Linux x86_64) AppleWebKit/537.36 (KHTML, like Gecko) Chrome/134.0.0.0 Safari/537.36" version="26.0.11">
  <diagram name="Page-1" id="ZCRHmxUp7qXE9HKA1dkY">
    <mxGraphModel dx="2537" dy="899" grid="1" gridSize="10" guides="1" tooltips="1" connect="1" arrows="1" fold="1" page="1" pageScale="1" pageWidth="850" pageHeight="1100" math="0" shadow="0">
      <root>
        <mxCell id="0" />
        <mxCell id="1" parent="0" />
        <mxCell id="Lg3aBeJ_nyOV5X6SMWgB-1" value="" style="endArrow=classic;html=1;rounded=0;entryX=0.5;entryY=0;entryDx=0;entryDy=0;exitX=0.5;exitY=1;exitDx=0;exitDy=0;" edge="1" parent="1" source="Lg3aBeJ_nyOV5X6SMWgB-8" target="Lg3aBeJ_nyOV5X6SMWgB-2">
          <mxGeometry width="50" height="50" relative="1" as="geometry">
            <mxPoint x="440" y="280" as="sourcePoint" />
            <mxPoint x="440" y="370" as="targetPoint" />
          </mxGeometry>
        </mxCell>
        <mxCell id="Lg3aBeJ_nyOV5X6SMWgB-4" value="" style="edgeStyle=orthogonalEdgeStyle;rounded=0;orthogonalLoop=1;jettySize=auto;html=1;exitX=0.25;exitY=1;exitDx=0;exitDy=0;" edge="1" parent="1" source="Lg3aBeJ_nyOV5X6SMWgB-2" target="Lg3aBeJ_nyOV5X6SMWgB-3">
          <mxGeometry relative="1" as="geometry" />
        </mxCell>
        <mxCell id="Lg3aBeJ_nyOV5X6SMWgB-5" value="Press Mode&lt;div&gt;button&lt;/div&gt;" style="edgeLabel;html=1;align=center;verticalAlign=middle;resizable=0;points=[];" vertex="1" connectable="0" parent="Lg3aBeJ_nyOV5X6SMWgB-4">
          <mxGeometry x="0.0897" y="3" relative="1" as="geometry">
            <mxPoint x="11" y="-3" as="offset" />
          </mxGeometry>
        </mxCell>
        <mxCell id="Lg3aBeJ_nyOV5X6SMWgB-11" value="" style="edgeStyle=orthogonalEdgeStyle;rounded=0;orthogonalLoop=1;jettySize=auto;html=1;entryX=0.5;entryY=0;entryDx=0;entryDy=0;exitX=0.75;exitY=1;exitDx=0;exitDy=0;" edge="1" parent="1" source="Lg3aBeJ_nyOV5X6SMWgB-2" target="Lg3aBeJ_nyOV5X6SMWgB-10">
          <mxGeometry relative="1" as="geometry">
            <mxPoint x="502" y="390" as="sourcePoint" />
            <mxPoint x="612" y="390" as="targetPoint" />
          </mxGeometry>
        </mxCell>
        <mxCell id="Lg3aBeJ_nyOV5X6SMWgB-12" value="Press Setting&amp;nbsp;&lt;div&gt;button&lt;/div&gt;" style="edgeLabel;html=1;align=center;verticalAlign=middle;resizable=0;points=[];" vertex="1" connectable="0" parent="Lg3aBeJ_nyOV5X6SMWgB-11">
          <mxGeometry x="-0.3788" relative="1" as="geometry">
            <mxPoint x="14" as="offset" />
          </mxGeometry>
        </mxCell>
        <mxCell id="Lg3aBeJ_nyOV5X6SMWgB-2" value="Camera&amp;nbsp;&lt;div&gt;Frame&lt;/div&gt;" style="rounded=1;whiteSpace=wrap;html=1;fillColor=#dae8fc;strokeColor=#6c8ebf;" vertex="1" parent="1">
          <mxGeometry x="380" y="360" width="120" height="60" as="geometry" />
        </mxCell>
        <mxCell id="Lg3aBeJ_nyOV5X6SMWgB-6" style="edgeStyle=orthogonalEdgeStyle;rounded=0;orthogonalLoop=1;jettySize=auto;html=1;entryX=0;entryY=0.5;entryDx=0;entryDy=0;exitX=0;exitY=0.5;exitDx=0;exitDy=0;" edge="1" parent="1" source="Lg3aBeJ_nyOV5X6SMWgB-3" target="Lg3aBeJ_nyOV5X6SMWgB-2">
          <mxGeometry relative="1" as="geometry">
            <Array as="points">
              <mxPoint x="250" y="540" />
              <mxPoint x="250" y="390" />
            </Array>
          </mxGeometry>
        </mxCell>
        <mxCell id="Lg3aBeJ_nyOV5X6SMWgB-7" value="Press Camera button" style="edgeLabel;html=1;align=center;verticalAlign=middle;resizable=0;points=[];" vertex="1" connectable="0" parent="Lg3aBeJ_nyOV5X6SMWgB-6">
          <mxGeometry x="-0.1859" relative="1" as="geometry">
            <mxPoint y="22" as="offset" />
          </mxGeometry>
        </mxCell>
        <mxCell id="Lg3aBeJ_nyOV5X6SMWgB-16" style="edgeStyle=orthogonalEdgeStyle;rounded=0;orthogonalLoop=1;jettySize=auto;html=1;entryX=0;entryY=0.25;entryDx=0;entryDy=0;" edge="1" parent="1" source="Lg3aBeJ_nyOV5X6SMWgB-3" target="Lg3aBeJ_nyOV5X6SMWgB-10">
          <mxGeometry relative="1" as="geometry">
            <Array as="points">
              <mxPoint x="445" y="520" />
              <mxPoint x="445" y="525" />
            </Array>
          </mxGeometry>
        </mxCell>
        <mxCell id="Lg3aBeJ_nyOV5X6SMWgB-18" value="Press Setting&lt;div&gt;mode&lt;/div&gt;" style="edgeLabel;html=1;align=center;verticalAlign=middle;resizable=0;points=[];" vertex="1" connectable="0" parent="Lg3aBeJ_nyOV5X6SMWgB-16">
          <mxGeometry x="-0.3478" y="1" relative="1" as="geometry">
            <mxPoint x="23" as="offset" />
          </mxGeometry>
        </mxCell>
        <mxCell id="Lg3aBeJ_nyOV5X6SMWgB-3" value="Alarm&amp;nbsp;&lt;span style=&quot;background-color: transparent; color: light-dark(rgb(0, 0, 0), rgb(255, 255, 255));&quot;&gt;Mode&lt;/span&gt;&lt;div&gt;Frame&lt;/div&gt;" style="whiteSpace=wrap;html=1;rounded=1;fillColor=#dae8fc;strokeColor=#6c8ebf;" vertex="1" parent="1">
          <mxGeometry x="260" y="510" width="120" height="60" as="geometry" />
        </mxCell>
        <mxCell id="Lg3aBeJ_nyOV5X6SMWgB-8" value="START" style="text;html=1;align=center;verticalAlign=middle;whiteSpace=wrap;rounded=0;glass=0;labelBackgroundColor=none;labelBorderColor=none;textShadow=0;fontStyle=1" vertex="1" parent="1">
          <mxGeometry x="410" y="280" width="60" height="30" as="geometry" />
        </mxCell>
        <mxCell id="Lg3aBeJ_nyOV5X6SMWgB-17" style="edgeStyle=orthogonalEdgeStyle;rounded=0;orthogonalLoop=1;jettySize=auto;html=1;entryX=1;entryY=0.75;entryDx=0;entryDy=0;" edge="1" parent="1" source="Lg3aBeJ_nyOV5X6SMWgB-10" target="Lg3aBeJ_nyOV5X6SMWgB-3">
          <mxGeometry relative="1" as="geometry">
            <Array as="points">
              <mxPoint x="445" y="550" />
              <mxPoint x="445" y="555" />
            </Array>
          </mxGeometry>
        </mxCell>
        <mxCell id="Lg3aBeJ_nyOV5X6SMWgB-19" value="Press Alarm&amp;nbsp;&lt;div&gt;mode&lt;/div&gt;" style="edgeLabel;html=1;align=center;verticalAlign=middle;resizable=0;points=[];" vertex="1" connectable="0" parent="Lg3aBeJ_nyOV5X6SMWgB-17">
          <mxGeometry x="0.4928" y="-1" relative="1" as="geometry">
            <mxPoint x="31" y="6" as="offset" />
          </mxGeometry>
        </mxCell>
        <mxCell id="Lg3aBeJ_nyOV5X6SMWgB-10" value="Setting&lt;div&gt;Frame&lt;/div&gt;" style="rounded=1;whiteSpace=wrap;html=1;fillColor=#dae8fc;strokeColor=#6c8ebf;" vertex="1" parent="1">
          <mxGeometry x="490" y="510" width="120" height="60" as="geometry" />
        </mxCell>
        <mxCell id="Lg3aBeJ_nyOV5X6SMWgB-14" style="edgeStyle=orthogonalEdgeStyle;rounded=0;orthogonalLoop=1;jettySize=auto;html=1;entryX=1;entryY=0.75;entryDx=0;entryDy=0;exitX=1;exitY=0.5;exitDx=0;exitDy=0;" edge="1" parent="1" source="Lg3aBeJ_nyOV5X6SMWgB-10">
          <mxGeometry relative="1" as="geometry">
            <mxPoint x="620" y="525.0000000000002" as="sourcePoint" />
            <mxPoint x="500" y="390" as="targetPoint" />
            <Array as="points">
              <mxPoint x="630" y="540" />
              <mxPoint x="630" y="390" />
            </Array>
          </mxGeometry>
        </mxCell>
        <mxCell id="Lg3aBeJ_nyOV5X6SMWgB-15" value="press Camera button" style="edgeLabel;html=1;align=center;verticalAlign=middle;resizable=0;points=[];" vertex="1" connectable="0" parent="Lg3aBeJ_nyOV5X6SMWgB-14">
          <mxGeometry x="0.4499" y="-1" relative="1" as="geometry">
            <mxPoint x="59" y="71" as="offset" />
          </mxGeometry>
        </mxCell>
        <mxCell id="Lg3aBeJ_nyOV5X6SMWgB-26" value="Camera Frame" style="swimlane;whiteSpace=wrap;html=1;fillColor=#dae8fc;strokeColor=#6c8ebf;" vertex="1" parent="1">
          <mxGeometry x="-470" y="710" width="340" height="180" as="geometry" />
        </mxCell>
        <mxCell id="Lg3aBeJ_nyOV5X6SMWgB-31" value="This frame has just to stream the webcam:&lt;div&gt;- Agnostico su ciò che è connesso e non è connesso&lt;/div&gt;&lt;div&gt;- Start trying to stream video0&lt;/div&gt;&lt;div&gt;- A button to switch from the webcam connected.&lt;/div&gt;" style="text;html=1;whiteSpace=wrap;overflow=hidden;rounded=0;" vertex="1" parent="Lg3aBeJ_nyOV5X6SMWgB-26">
          <mxGeometry x="10" y="30" width="320" height="140" as="geometry" />
        </mxCell>
        <mxCell id="Lg3aBeJ_nyOV5X6SMWgB-33" value="Mode Selector" style="swimlane;whiteSpace=wrap;html=1;fillColor=#dae8fc;strokeColor=#6c8ebf;" vertex="1" parent="1">
          <mxGeometry x="85" y="710" width="340" height="350" as="geometry" />
        </mxCell>
        <mxCell id="Lg3aBeJ_nyOV5X6SMWgB-34" value="This frame allow the user to select the different alarm mode provided by Shinobi:&lt;div&gt;&lt;br&gt;&lt;/div&gt;&lt;div&gt;&lt;b&gt;No Mode&lt;/b&gt;: Nothing to do, disable all other mode.&lt;/div&gt;&lt;div&gt;&lt;br&gt;&lt;/div&gt;&lt;div&gt;&lt;b&gt;Dog Mode: &lt;/b&gt;Activate barking and skretching&lt;/div&gt;&lt;div&gt;&lt;br&gt;&lt;/div&gt;&lt;div&gt;&lt;b&gt;Sentinel Mode:&lt;/b&gt;&lt;/div&gt;&lt;div&gt;&lt;b&gt;&lt;br&gt;&lt;/b&gt;&lt;/div&gt;&lt;div&gt;&lt;b&gt;Shinobi Mode:&lt;/b&gt;&lt;/div&gt;&lt;div&gt;&lt;br&gt;&lt;/div&gt;&lt;div&gt;&lt;br&gt;&lt;/div&gt;&lt;div&gt;&lt;br&gt;&lt;/div&gt;&lt;div&gt;, Dog Mode, Sentinel Mode, Shinobi Mode&lt;/div&gt;" style="text;html=1;whiteSpace=wrap;overflow=hidden;rounded=0;" vertex="1" parent="Lg3aBeJ_nyOV5X6SMWgB-33">
          <mxGeometry x="10" y="30" width="320" height="180" as="geometry" />
        </mxCell>
        <mxCell id="Lg3aBeJ_nyOV5X6SMWgB-35" value="Setting Frame" style="swimlane;whiteSpace=wrap;html=1;fillColor=#dae8fc;strokeColor=#6c8ebf;" vertex="1" parent="1">
          <mxGeometry x="720" y="710" width="340" height="180" as="geometry" />
        </mxCell>
        <mxCell id="Lg3aBeJ_nyOV5X6SMWgB-36" value="This frame has just to stream the webcam:&lt;div&gt;- Agnostico su ciò che è connesso e non è connesso&lt;/div&gt;&lt;div&gt;- Start trying to stream video0&lt;/div&gt;&lt;div&gt;- A button to switch from the webcam connected.&lt;/div&gt;" style="text;html=1;whiteSpace=wrap;overflow=hidden;rounded=0;" vertex="1" parent="Lg3aBeJ_nyOV5X6SMWgB-35">
          <mxGeometry x="10" y="30" width="390" height="330" as="geometry" />
        </mxCell>
        <mxCell id="Lg3aBeJ_nyOV5X6SMWgB-37" value="NO MODE" style="rounded=1;whiteSpace=wrap;html=1;" vertex="1" parent="1">
          <mxGeometry x="10" y="1100" width="120" height="40" as="geometry" />
        </mxCell>
        <mxCell id="Lg3aBeJ_nyOV5X6SMWgB-38" value="DOG MODE" style="rounded=1;whiteSpace=wrap;html=1;" vertex="1" parent="1">
          <mxGeometry x="170" y="1100" width="120" height="40" as="geometry" />
        </mxCell>
        <mxCell id="Lg3aBeJ_nyOV5X6SMWgB-39" value="SENTINEL MODE" style="rounded=1;whiteSpace=wrap;html=1;" vertex="1" parent="1">
          <mxGeometry x="350" y="1100" width="120" height="40" as="geometry" />
        </mxCell>
        <mxCell id="Lg3aBeJ_nyOV5X6SMWgB-40" value="SHINOBI MODE" style="rounded=1;whiteSpace=wrap;html=1;" vertex="1" parent="1">
          <mxGeometry x="510" y="1100" width="120" height="40" as="geometry" />
        </mxCell>
      </root>
    </mxGraphModel>
  </diagram>
</mxfile>
